Coordinates
version=1
nRows=13
nColumns=40
inDegrees=yes

Units are S.I. units (second, meters, Newtons, ...)
Angles are in degrees.

endheader
time	pelvis_tilt	pelvis_list	pelvis_rotation	pelvis_tx	pelvis_ty	pelvis_tz	hip_flexion_r	hip_adduction_r	hip_rotation_r	knee_angle_r	knee_angle_r_beta	ankle_angle_r	subtalar_angle_r	mtp_angle_r	hip_flexion_l	hip_adduction_l	hip_rotation_l	knee_angle_l	knee_angle_l_beta	ankle_angle_l	subtalar_angle_l	mtp_angle_l	lumbar_extension	lumbar_bending	lumbar_rotation	arm_flex_r	arm_add_r	arm_rot_r	elbow_flex_r	pro_sup_r	wrist_flex_r	wrist_dev_r	arm_flex_l	arm_add_l	arm_rot_l	elbow_flex_l	pro_sup_l	wrist_flex_l	wrist_dev_l
     48.23000000	     -6.46087773	     -4.04070794	      0.57849320	      1.02063585	      0.93019334	      0.45836420	     34.18556367	     -6.19483333	     -5.87537837	     70.22576110	     70.22576110	     -0.12614090	    -16.32028164	      1.83396813	     17.30584406	     -3.96172106	     -5.68274176	     21.09805902	     21.09805902	     13.16533831	     -6.16429538	     -1.10133549	    -11.77204915	      5.29440869	      2.18949153	      5.58995932	    -15.63008113	      0.92337211	     47.59600737	     45.64365807	      0.00000000	      0.00000000	      1.86266974	    -15.34225059	     -4.16297100	     64.09826197	     46.48178392	      0.00000000	      0.00000000
     48.24221429	     -6.48666921	     -4.12579780	      0.40682274	      1.01969250	      0.93051580	      0.45842064	     35.03829160	     -6.12703144	     -5.82453828	     69.09545244	     69.09545244	     -0.10516252	    -15.72270802	      1.52607152	     16.62035339	     -4.01308562	     -5.58114855	     20.70105856	     20.70105856	     13.37614038	     -6.46792380	     -0.98664263	    -11.82092414	      5.42385675	      2.37794820	      4.72911829	    -16.20650815	      0.73377385	     46.23914964	     45.69610562	      0.00000000	      0.00000000	      2.86926928	    -15.62007425	     -4.27383371	     65.45332075	     46.53054046	      0.00000000	      0.00000000
     48.25442857	     -6.50853534	     -4.19957666	      0.22311626	      1.01877903	      0.93077805	      0.45860694	     35.78007129	     -6.03163111	     -5.76303000	     67.78820080	     67.78820080	     -0.36552303	    -15.29877066	      0.61339470	     15.94154329	     -4.13212139	     -5.79049151	     20.33074580	     20.33074580	     13.59015555	     -6.29880120	     -1.20887764	    -11.89850220	      5.47712347	      2.09974480	      4.56887229	    -16.22765879	     -0.32905415	     43.84752978	     45.82770643	      0.00000000	      0.00000000	      3.07191504	    -16.50776687	     -3.92893244	     68.13706797	     46.59475639	      0.00000000	      0.00000000
     48.26664286	     -6.50368071	     -4.30006430	      0.05038440	      1.01797237	      0.93110200	      0.45879534	     36.37905900	     -5.91226428	     -5.75005152	     66.32026622	     66.32026622	     -0.30625546	    -14.70682724	      0.55330774	     15.19500648	     -4.26245003	     -5.94925434	     19.88963323	     19.88963323	     13.84516660	     -6.10290272	     -1.23931765	    -11.97769495	      5.60639104	      2.12372461	      3.71298707	    -16.74262765	     -0.52450465	     42.98348083	     45.86276099	      0.00000000	      0.00000000	      4.00237367	    -16.77940672	     -4.21111047	     69.23987453	     46.64711497	      0.00000000	      0.00000000
     48.27885714	     -6.46695752	     -4.30029123	     -0.14946271	      1.01726497	      0.93135772	      0.45906351	     36.85538490	     -5.85721997	     -5.64846494	     64.65548770	     64.65548770	     -0.43964658	    -14.21406965	      0.09544214	     14.43383440	     -4.32107337	     -6.29462815	     19.50283103	     19.50283103	     14.10185514	     -5.75214688	     -1.44136553	    -12.12097249	      5.58278677	      1.94808059	      3.53873090	    -16.73393800	     -1.89975122	     40.78184322	     46.00065806	      0.00000000	      0.00000000	      4.23544940	    -17.52498070	     -4.26150348	     71.99947892	     46.75400330	      0.00000000	      0.00000000
     48.29107143	     -6.41558899	     -4.25775329	     -0.37597809	      1.01666927	      0.93164355	      0.45939534	     37.19729870	     -5.85108632	     -5.56871843	     62.76362666	     62.76362666	     -0.36636985	    -13.61130129	      0.12402654	     13.58644610	     -4.29839884	     -6.55683528	     18.99153430	     18.99153430	     14.34014613	     -5.57851192	     -1.41012863	    -12.25637618	      5.54383810	      2.11921482	      2.72391107	    -17.19547512	     -2.18464085	     39.89806945	     46.03984941	      0.00000000	      0.00000000	      5.17034628	    -17.74072790	     -4.59192159	     73.31173231	     46.81971273	      0.00000000	      0.00000000
     48.30328571	     -6.35846059	     -4.18705596	     -0.59821535	      1.01621729	      0.93195097	      0.45971553	     37.37917178	     -5.88708760	     -5.53641920	     60.55903349	     60.55903349	     -0.29967136	    -12.98913219	      0.18313221	     12.71612768	     -4.23455878	     -6.82613850	     18.45089117	     18.45089117	     14.55704430	     -5.36252788	     -1.36108684	    -12.38809855	      5.47517150	      2.20411987	      1.95536339	    -17.58337698	     -2.52196168	     39.06601437	     46.08103097	      0.00000000	      0.00000000	      5.92244297	    -18.02236858	     -4.81725168	     74.83362281	     46.87843367	      0.00000000	      0.00000000
     48.31550000	     -6.31137449	     -4.04938234	     -0.83631527	      1.01590135	      0.93211204	      0.46022894	     37.44054507	     -5.95248922	     -5.47623150	     58.07095712	     58.07095712	     -0.32876913	    -12.46628577	     -0.30525326	     11.86044990	     -4.10717807	     -7.11594136	     17.93630919	     17.93630919	     14.81653145	     -5.17191348	     -1.23581363	    -12.50999901	      5.28077184	      1.86654671	      1.73514185	    -17.51735155	     -4.01283619	     37.61771883	     46.19553498	      0.00000000	      0.00000000	      5.94927391	    -18.70744742	     -5.13107388	     77.64101034	     47.00819722	      0.00000000	      0.00000000
     48.32771429	     -6.32280099	     -3.87820833	     -1.08190649	      1.01572362	      0.93226647	      0.46077791	     37.40426395	     -6.07671656	     -5.53431627	     55.24768510	     55.24768510	     -0.20296636	    -11.79721906	     -0.13400259	     11.00914220	     -3.92399786	     -7.39268216	     17.32023140	     17.32023140	     15.02127961	     -4.97706599	     -1.14615327	    -12.51951749	      5.11698975	      1.98370100	      0.91887082	    -17.87735297	     -4.13428683	     37.10499558	     46.21387257	      0.00000000	      0.00000000	      6.77556975	    -18.88469976	     -5.48649186	     78.59488303	     47.06092106	      0.00000000	      0.00000000
     48.33992857	     -6.18034440	     -3.57513345	     -1.39044247	      1.01581415	      0.93258816	      0.46141399	     37.07075528	     -6.29390687	     -5.55518454	     52.14259307	     52.14259307	     -0.02803589	    -10.96401424	     -0.11520599	      9.87004185	     -3.58602869	     -7.77959563	     16.52355567	     16.52355567	     15.18485967	     -4.73266041	     -0.93464867	    -12.73014008	      4.77085563	      2.27509982	      0.02710652	    -18.24340720	     -4.35611663	     36.57168073	     46.23697321	      0.00000000	      0.00000000	      7.53185519	    -18.87561714	     -5.78817696	     80.19298790	     47.12374041	      0.00000000	      0.00000000
     48.35214286	     -6.10282219	     -3.18657577	     -1.71507780	      1.01606034	      0.93266440	      0.46216875	     36.67209269	     -6.56317313	     -5.59323907	     48.77046861	     48.77046861	      0.13373283	    -10.04949876	     -0.43983459	      8.77780661	     -3.14210269	     -8.17830016	     15.68894662	     15.68894662	     15.37297367	     -4.53802066	     -0.60111611	    -12.85586345	      4.32194482	      2.46772956	     -0.83622439	    -18.44277052	     -4.79179953	     36.22732990	     46.26139860	      0.00000000	      0.00000000	      8.06548837	    -19.05883498	     -6.15574816	     82.31072956	     47.20680581	      0.00000000	      0.00000000
     48.36435714	     -6.18632714	     -2.98499348	     -1.98369223	      1.01631634	      0.93249042	      0.46315663	     36.22761710	     -6.61138553	     -5.86586458	     45.05145048	     45.05145048	      0.30627391	     -9.12490679	     -0.28093150	      7.96742089	     -2.92515631	     -8.40827581	     15.05314637	     15.05314637	     15.58893133	     -4.34528361	     -0.46502329	    -12.74374830	      4.11318466	      2.50578870	     -1.56940193	    -18.62738466	     -4.96165625	     35.98014898	     46.27253668	      0.00000000	      0.00000000	      8.60214574	    -19.26375092	     -6.45464173	     83.46824145	     47.25732465	      0.00000000	      0.00000000
     48.37657143	     -6.04042002	     -2.60783261	     -2.28876149	      1.01691512	      0.93249342	      0.46414786	     35.39320192	     -6.83224390	     -6.20476225	     41.12511723	     41.12511723	      0.48735213	     -7.82669140	     -0.32033968	      6.73633182	     -2.48055635	     -8.78985239	     14.13479529	     14.13479529	     15.78661778	     -4.01144709	     -0.16078330	    -12.90394572	      3.66949771	      2.75997135	     -2.46094256	    -18.86966826	     -5.22805946	     35.79525941	     46.28394539	      0.00000000	      0.00000000	      9.10110912	    -19.20254606	     -6.78615095	     85.34227417	     47.32628372	      0.00000000	      0.00000000
